# xmcd CD database file
#
# Track frame offsets:
#	150
#	17350
#	42325
#	56200
#	76125
#	91775
#	115500
#	146550
#	175200
#	206550
#	221975
#	234775
#	270225
#	297050
#
# Disc length: 4264 seconds
#
# Revision: 0
# Processed by: cddbd v1.5.1PL0 Copyright (c) Steve Scherf et al.
# Submitted via: CDex 1.51
#
DISCID=b510a60e
DTITLE=Lester Young - Vol. II 1946-1959 [CD 2) 
DYEAR=1994
DGENRE=Jazz
TTITLE0=Prez
TTITLE1=Too Marvelous For Words
TTITLE2=St. Louis Blues Pt. 2
TTITLE3=Lester's Blues
TTITLE4=Tenderly
TTITLE5=Pennies From Heaven
TTITLE6=Gigantic Blues
TTITLE7=Pres Returns
TTITLE8=Three Little Words
TTITLE9=Polka Dots And Moonbeams
TTITLE10=Lester Leaps In
TTITLE11=Chris 'n' Diz
TTITLE12=They Can't Take That Away From Me
TTITLE13=There'll Never Be Another You
EXTD=YEAR: 1994
EXTT0=
EXTT1=
EXTT2=
EXTT3=
EXTT4=
EXTT5=
EXTT6=
EXTT7=
EXTT8=
EXTT9=
EXTT10=
EXTT11=
EXTT12=
EXTT13=
PLAYORDER=
